<svg version="1.1" id="Layer_1" xmlns="http://www.w3.org/2000/svg" xmlns:xlink="http://www.w3.org/1999/xlink" x="0px" y="0px"
	 width="100%" viewBox="0 0 1135 344" enable-background="new 0 0 1135 344" xml:space="preserve">
<path fill="#E6E8EC" opacity="1.000000" stroke="none" 
	d="
M806.000000,345.000000 
	C537.333313,345.000000 269.166656,345.000000 1.000000,345.000000 
	C1.000000,230.333328 1.000000,115.666664 1.000000,1.000000 
	C379.333344,1.000000 757.666687,1.000000 1136.000000,1.000000 
	C1136.000000,115.666664 1136.000000,230.333328 1136.000000,345.000000 
	C1026.166626,345.000000 916.333313,345.000000 806.000000,345.000000 
M413.452179,124.426910 
	C411.480713,124.284706 409.509613,124.024139 407.537720,124.018021 
	C376.980682,123.923332 346.423492,123.861633 315.856567,122.973671 
	C315.563995,120.355492 315.023682,117.737923 315.017242,115.119041 
	C314.953766,89.288231 314.978851,63.457207 314.978851,37.626244 
	C314.978851,33.646309 314.978851,29.666374 314.978851,25.518608 
	C312.943542,25.085138 311.217316,24.395418 309.493835,24.402058 
	C297.139404,24.449648 284.784698,24.807999 272.431763,24.742418 
	C254.987274,24.649807 237.544540,24.254007 220.100204,24.067364 
	C218.697754,24.052359 217.288757,24.652292 215.285980,25.563498 
	C215.179932,38.527363 214.983109,51.491268 214.988846,64.455086 
	C214.997742,84.581535 215.144577,104.707939 214.248322,124.806686 
	C181.568069,124.806686 148.887833,124.806686 115.987602,124.806686 
	C115.987602,158.475540 115.987602,191.237442 115.052078,224.019104 
	C84.274544,224.035034 53.496967,224.034546 22.719561,224.106461 
	C20.812292,224.110916 18.906353,224.684631 16.991480,225.931534 
	C16.987940,258.623108 16.984400,291.314697 16.865599,324.594299 
	C17.489893,324.741272 18.114098,325.016327 18.738501,325.016785 
	C49.495167,325.038696 80.251869,325.050720 111.008438,324.993896 
	C112.407707,324.991302 113.805779,324.344391 115.402931,324.057129 
	C115.402931,324.057129 115.609901,324.068512 116.152298,324.180450 
	C116.335899,324.161133 116.519493,324.141846 117.353302,324.716187 
	C119.340965,324.783813 121.328537,324.907806 123.316299,324.910645 
	C153.880875,324.954224 184.445450,324.982056 215.523468,325.207275 
	C215.706039,325.195953 215.888626,325.184662 216.997528,325.117340 
	C220.984787,325.101929 224.972015,325.080933 228.959290,325.072052 
	C257.699371,325.008118 286.439484,324.946625 316.093811,324.915009 
	C347.375854,324.917023 378.658295,324.845428 409.939453,325.010773 
	C414.013489,325.032318 415.044983,323.739288 414.935974,319.858246 
	C414.575439,307.020477 414.408417,294.173431 414.418060,281.330109 
	C414.432129,262.634338 414.664337,243.938705 414.872192,224.275940 
	C414.882141,192.782593 414.904572,161.289246 414.865509,129.795959 
	C414.863525,128.208313 414.330627,126.621307 413.452179,124.426910 
M488.621460,325.576996 
	C495.368805,325.717987 502.116669,325.976440 508.863251,325.946869 
	C511.908081,325.933502 514.950378,325.346436 518.322998,324.278381 
	C519.864014,317.409668 519.565186,317.003540 512.920593,316.991699 
	C509.098114,316.984894 505.263245,316.798248 501.456787,317.045013 
	C497.902710,317.275452 496.868164,315.856262 496.920288,312.433838 
	C497.084747,301.634094 496.905426,290.829407 497.026031,280.028534 
	C497.059418,277.038086 496.078766,275.736053 493.009644,275.971008 
	C490.248840,276.182373 487.003052,275.373749 487.006775,279.828857 
	C487.018463,293.789093 486.991669,307.749451 487.058594,321.709351 
	C487.063873,322.814178 487.675934,323.916107 488.621460,325.576996 
M852.012817,284.979523 
	C852.009705,295.334625 852.006531,305.689758 851.401733,316.573151 
	C850.591492,316.711517 849.773621,317.001434 848.972351,316.961151 
	C846.047180,316.813995 843.759155,316.942474 843.958984,321.029694 
	C844.153198,325.002350 846.545471,325.036194 849.387390,325.014099 
	C855.210083,324.968872 861.034546,324.933380 866.856079,325.027679 
	C869.891541,325.076874 871.948120,324.595154 872.042358,320.783478 
	C872.136658,316.971771 869.982239,316.743073 867.268799,317.018921 
	C864.015198,317.349609 862.864990,316.021332 862.945862,312.751312 
	C863.126892,305.435333 863.145203,298.107880 862.945068,290.792877 
	C862.829407,286.564636 862.863831,283.155975 868.732849,283.764160 
	C869.673584,283.861664 871.754822,281.272980 871.737915,279.946106 
	C871.721069,278.626862 869.776855,276.261963 868.587036,276.203491 
	C861.450684,275.852875 854.278992,275.856903 847.144104,276.225250 
	C846.036255,276.282410 844.359253,278.764679 844.239929,280.230835 
	C844.145813,281.388184 845.807495,283.206543 847.116089,283.817871 
	C848.493896,284.461517 850.378540,284.020203 852.012817,284.979523 
M962.669800,325.602631 
	C969.391724,325.735077 976.114197,325.981201 982.835327,325.948669 
	C985.868408,325.933990 988.898865,325.364410 992.509338,324.470276 
	C993.683838,317.101654 993.603149,316.999390 986.570374,316.990692 
	C984.574280,316.988220 982.577393,317.027863 980.582275,316.983917 
	C969.719299,316.744812 969.663513,319.440125 970.155273,305.741577 
	C970.165405,305.459229 970.468445,305.187408 970.361206,305.365723 
	C975.765198,304.944153 980.921692,304.889862 985.899353,303.918793 
	C987.209167,303.663239 988.417480,300.646881 988.734741,298.742096 
	C988.847778,298.063385 986.257446,296.291656 984.773132,296.118988 
	C981.326416,295.718018 977.797302,295.874847 974.309692,296.011810 
	C969.621277,296.195923 970.028809,293.005188 969.991089,289.936859 
	C969.952209,286.766998 969.833130,283.803070 974.436890,283.974030 
	C979.253906,284.152832 984.083923,283.952301 988.906433,284.031342 
	C991.370728,284.071716 993.079956,283.714172 993.051025,280.590149 
	C993.022644,277.527222 992.062256,275.860779 988.743408,275.980042 
	C985.587097,276.093445 982.418823,275.890350 979.263977,276.022339 
	C973.166260,276.277435 967.074280,276.670410 960.422546,277.621796 
	C960.303528,292.487396 960.174561,307.352936 960.103394,322.218811 
	C960.100708,322.787384 960.656616,323.358673 961.218323,324.399445 
	C961.502625,324.615509 961.786865,324.831573 962.669800,325.602631 
M1113.600952,140.332870 
	C1113.416260,131.912064 1113.231689,123.491257 1112.444580,114.479553 
	C1102.662109,114.319283 1092.873901,113.900566 1083.099487,114.110886 
	C1078.413208,114.211716 1076.842896,113.006317 1076.888794,108.085915 
	C1077.127686,82.483780 1076.904907,56.877544 1077.086548,31.274469 
	C1077.119751,26.601976 1075.877686,24.725208 1070.927612,24.903217 
	C1061.628906,25.237606 1052.309692,25.000290 1042.432861,25.612219 
	C1042.288940,26.587894 1042.019897,27.563496 1042.019287,28.539242 
	C1041.997437,64.980705 1041.988403,101.422188 1042.046143,137.863571 
	C1042.048340,139.247635 1042.728027,140.630630 1044.017822,142.001770 
	C1065.137939,142.004425 1086.258301,142.034454 1107.378174,141.962830 
	C1109.268311,141.956421 1111.156250,141.291122 1113.600952,140.332870 
M550.330078,73.397369 
	C539.904785,73.279099 529.479431,73.160835 519.022827,72.100525 
	C519.015259,67.442940 519.296753,62.761772 518.919312,58.134354 
	C518.537048,53.447685 519.903748,51.671101 524.903992,51.895973 
	C533.868347,52.299114 542.865112,51.929062 551.845947,52.053608 
	C554.748474,52.093857 555.814514,51.224888 556.100220,48.144516 
	C556.663574,42.070049 557.805481,36.044540 558.828247,30.019184 
	C559.427795,26.487223 558.554016,24.834328 554.522461,24.925856 
	C544.546997,25.152327 534.562927,24.999485 524.582275,24.999357 
	C511.999115,24.999193 511.999115,24.999319 511.998901,37.404045 
	C511.998718,47.007690 511.996735,46.889301 502.102539,47.054375 
	C496.715179,47.144257 491.335876,47.716206 485.397705,48.669319 
	C485.265137,56.052570 485.036377,63.436008 485.050415,70.818977 
	C485.055573,73.523605 485.636169,76.227150 485.994415,79.876450 
	C485.996155,98.829338 486.064941,117.782669 485.943024,136.734756 
	C485.918640,140.529297 487.087097,142.169113 491.083771,142.061737 
	C498.892273,141.851913 506.714478,141.852676 514.522766,142.066681 
	C518.054810,142.163498 519.114746,140.908218 519.063171,137.461945 
	C518.894043,126.158913 519.102783,114.850266 518.939453,103.547050 
	C518.890015,100.124229 519.904114,98.843872 523.466125,98.939499 
	C531.606506,99.158066 539.758911,99.084946 547.901550,98.905663 
	C549.249023,98.875984 551.733215,97.701668 551.728821,97.070015 
	C551.675110,89.362640 551.254272,81.657822 550.330078,73.397369 
M691.980286,108.806160 
	C693.205505,114.628502 693.842163,120.657837 695.799133,126.222855 
	C698.485718,133.862549 704.321838,138.930740 712.159424,141.089645 
	C717.403687,142.534241 722.821472,143.494568 728.223450,144.193329 
	C743.039246,146.109756 757.771606,145.546127 772.020691,140.761581 
	C779.943726,138.101212 786.035767,132.846680 788.225708,124.435425 
	C789.888916,118.047012 791.716248,111.469551 791.824158,104.948975 
	C792.240295,79.792870 791.969849,54.625778 792.028503,29.462954 
	C792.035950,26.289705 790.808655,24.935749 787.593689,24.971846 
	C779.096008,25.067249 770.593689,25.130953 762.099182,24.939274 
	C758.627441,24.860931 757.911438,26.373522 757.969177,29.439522 
	C758.116638,37.268639 758.015137,45.102421 758.015503,52.934338 
	C758.016235,70.931076 758.041870,88.927864 758.005615,106.924522 
	C757.994507,112.419449 755.501587,115.605675 750.752686,115.960701 
	C744.303894,116.442810 737.838562,116.797363 731.374268,116.950874 
	C725.062378,117.100777 724.993530,116.907341 724.992065,110.523178 
	C724.985779,83.695290 724.918457,56.867023 725.065552,30.039948 
	C725.087036,26.132452 724.000305,24.797987 719.991394,24.913860 
	C710.667236,25.183369 701.329956,25.000233 691.432190,25.612373 
	C691.289368,26.419685 691.022461,27.226887 691.021729,28.034336 
	C690.998779,53.431889 690.988342,78.829491 691.041260,104.226952 
	C691.043823,105.462715 691.637085,106.697250 691.980286,108.806160 
M575.398376,26.668201 
	C575.266357,27.479671 575.019226,28.291079 575.018738,29.102619 
	C574.999023,65.357109 574.988953,101.611626 575.046387,137.866028 
	C575.048584,139.249283 575.727966,140.631454 577.017395,142.001801 
	C587.685791,141.998901 598.354126,141.996002 609.578735,141.376999 
	C609.715027,129.922440 609.851318,118.467873 610.915466,107.005974 
	C612.746948,107.004189 614.617798,107.244446 616.402222,106.953751 
	C621.139099,106.182060 623.568848,108.294350 625.388184,112.567093 
	C629.026917,121.113197 633.347534,129.368195 637.020508,137.900970 
	C638.368835,141.033249 640.111328,142.133408 643.404907,142.059311 
	C651.392395,141.879684 659.386719,142.019699 667.378174,141.988495 
	C669.448181,141.980423 671.517517,141.816010 674.047791,141.702789 
	C673.608948,140.085892 673.486816,139.115585 673.094788,138.270493 
	C668.269226,127.868629 663.633972,117.368286 658.440430,107.152206 
	C656.251709,102.846886 655.272156,99.665062 660.350952,97.012680 
	C661.442078,96.442856 662.198853,95.124878 662.958679,94.045349 
	C670.551514,83.258904 671.004028,70.970627 669.527832,58.634228 
	C668.774597,52.339619 667.248047,45.690807 664.243347,40.202808 
	C657.415955,27.732883 644.758057,25.497297 632.069031,25.122944 
	C615.101746,24.622370 598.108459,24.968525 581.126709,25.046061 
	C579.400879,25.053942 577.678040,25.712646 575.398376,26.668201 
M918.948914,142.009171 
	C927.279907,142.009094 935.612366,141.917023 943.941040,142.055679 
	C947.129456,142.108749 948.731201,141.173019 949.327087,137.761444 
	C950.065735,133.532974 951.346924,129.353256 952.870361,125.333092 
	C953.396484,123.944626 955.324890,122.186234 956.656677,122.148621 
	C966.312439,121.875969 975.979980,122.062759 985.642273,121.961235 
	C988.541992,121.930771 989.666016,123.128113 990.247375,125.929398 
	C991.189575,130.468994 992.578491,134.926468 993.997070,139.348602 
	C994.323547,140.366272 995.522522,141.838745 996.340820,141.852402 
	C1006.598816,142.023468 1016.860657,141.964554 1027.512207,141.964554 
	C1027.023193,139.707382 1026.732300,138.086182 1026.318604,136.496933 
	C1020.716797,114.977913 1015.108826,93.460472 1009.479370,71.948662 
	C1005.782959,57.823635 1001.987000,43.724255 998.377014,29.577301 
	C997.482422,26.071634 995.722107,24.854481 992.044556,24.913538 
	C978.551880,25.130219 965.047791,25.225435 951.560486,24.879610 
	C946.682617,24.754536 945.023071,26.653887 943.896179,31.068895 
	C938.273193,53.098843 932.292969,75.037308 926.509644,97.026703 
	C922.962646,110.513031 919.491089,124.020004 916.136902,137.555161 
	C915.737305,139.167740 913.796387,142.137604 918.948914,142.009171 
M891.625854,52.901134 
	C892.746521,51.895008 894.617798,51.042290 894.860168,49.856651 
	C896.017700,44.193077 896.621643,38.419228 897.639404,32.723351 
	C898.562378,27.558088 897.710327,25.821957 892.593384,25.154800 
	C875.036926,22.865725 857.615295,20.287849 839.820435,24.783272 
	C826.151123,28.236481 817.271973,35.639477 814.069214,49.288914 
	C812.564148,55.703148 811.865112,62.315567 810.963379,68.860580 
	C808.578491,86.170189 810.087769,103.286247 814.083252,120.190819 
	C816.359863,129.822662 821.843933,137.452774 831.467285,140.467682 
	C838.971924,142.818848 846.933411,144.189194 854.785706,144.811188 
	C861.836548,145.369705 869.107910,144.909393 876.113464,143.817230 
	C884.415894,142.522903 892.590271,140.255157 900.688721,137.947922 
	C902.121826,137.539642 903.838074,134.885712 903.857483,133.250214 
	C904.078918,114.599861 903.975220,95.945854 904.017334,77.292961 
	C904.023865,74.416199 902.954651,72.982185 899.922729,72.996780 
	C888.098816,73.053673 876.274231,73.060112 864.450439,72.986183 
	C861.828430,72.969795 860.935181,74.075836 860.976746,76.583549 
	C861.070557,82.244507 861.080505,87.909378 860.976685,93.569946 
	C860.928101,96.216263 862.121277,97.161827 864.599731,97.018150 
	C865.927490,96.941177 867.273987,97.116898 868.593872,96.989807 
	C871.700134,96.690720 873.242065,97.711815 873.049500,101.139984 
	C872.825623,105.124496 872.899475,109.134392 873.030457,113.127151 
	C873.118958,115.826378 872.235718,117.090233 869.339417,117.033363 
	C862.846680,116.905899 856.348328,116.916389 849.855164,117.032417 
	C847.131470,117.081085 845.962219,116.175064 845.975586,113.310539 
	C846.055481,96.156830 845.880554,79.000938 846.085022,61.849285 
	C846.169312,54.774879 850.655945,49.915695 857.664917,50.142643 
	C868.723755,50.500729 879.750671,51.842216 891.625854,52.901134 
M1100.520142,189.436417 
	C1093.352539,188.289627 1086.136719,188.034836 1081.763916,195.027969 
	C1079.212891,199.107529 1077.409058,203.949097 1076.480591,208.685318 
	C1074.702393,217.758041 1076.180176,226.667465 1081.429565,234.399124 
	C1085.452393,240.324173 1091.786011,242.050797 1098.607300,240.803955 
	C1105.880493,239.474487 1110.529175,234.504318 1111.861206,227.550735 
	C1113.051514,221.337097 1113.147095,214.807800 1112.896118,208.450500 
	C1112.572388,200.245743 1109.144531,193.516296 1100.520142,189.436417 
M964.507202,191.019089 
	C962.004028,190.892105 959.922241,190.963104 959.951233,194.512146 
	C960.065369,208.485901 960.029907,222.461304 959.966614,236.435699 
	C959.955200,238.948792 960.834595,239.980927 963.437256,240.052628 
	C966.987366,240.150406 968.076050,238.523758 968.036987,235.210190 
	C967.926514,225.844681 967.998413,216.477005 967.998413,205.916016 
	C969.069885,207.492249 969.500305,207.961929 969.747620,208.513687 
	C973.887939,217.751801 978.190552,226.923767 982.051086,236.277969 
	C984.026123,241.063492 987.866699,240.443573 991.180054,239.630188 
	C992.509583,239.303818 993.837769,235.910767 993.876770,233.888626 
	C994.120789,221.249557 993.955261,208.603149 994.033142,195.959839 
	C994.051453,192.995331 993.946167,190.821594 989.929565,190.916367 
	C986.283813,191.002380 984.879211,192.251419 984.948181,195.925201 
	C985.109680,204.533798 984.999817,213.147507 984.999817,221.759140 
	C980.509888,213.392380 976.527283,204.901047 973.000183,196.224548 
	C971.493225,192.517532 969.719055,190.165207 964.507202,191.019089 
M851.000183,198.565826 
	C851.000183,197.900497 850.933105,197.227188 851.011230,196.571152 
	C851.457214,192.825638 850.615051,190.840759 846.045349,190.849487 
	C841.567261,190.858047 840.831970,192.665756 840.969299,196.496490 
	C841.438965,209.592758 841.730957,222.696472 841.957703,235.799637 
	C842.015503,239.141449 843.609619,240.021286 846.644287,240.037613 
	C849.911255,240.055176 851.145386,238.640594 851.020264,235.509888 
	C850.907349,232.686829 850.947571,229.854492 851.009338,227.028183 
	C851.227722,217.028336 849.004761,218.159225 860.485596,217.967911 
	C864.089600,217.907867 865.121155,219.576187 865.022034,222.838287 
	C864.890808,227.158813 865.078369,231.488571 864.970337,235.810394 
	C864.886169,239.177597 866.630981,240.072449 869.650818,240.033020 
	C872.476135,239.996124 874.023865,239.075439 874.013123,236.001938 
	C873.964966,222.196655 873.914246,208.390411 874.041382,194.586136 
	C874.077881,190.618973 871.581787,190.969101 869.049561,191.016251 
	C866.617920,191.061508 863.812256,190.400818 863.972656,194.474854 
	C864.129578,198.460388 864.187073,202.472000 863.879456,206.440475 
	C863.784607,207.664047 862.532227,209.586136 861.496216,209.824341 
	C852.898315,211.801315 851.002014,210.204819 851.000366,201.528198 
	C851.000244,200.862869 851.000305,200.197556 851.000183,198.565826 
M639.009277,297.616150 
	C638.633240,294.500763 638.741638,291.227051 637.785339,288.301331 
	C635.440430,281.127411 631.163208,275.636871 623.036560,274.520935 
	C617.572632,273.770630 612.743896,275.503662 609.147400,279.496368 
	C601.447083,288.044861 600.884583,309.676178 607.666321,319.066681 
	C611.932983,324.974609 617.601624,327.140320 624.583130,325.835175 
	C631.080139,324.620575 635.354614,320.438080 636.920776,314.232178 
	C638.201050,309.158661 638.355957,303.801147 639.009277,297.616150 
M749.412170,289.694366 
	C751.394714,288.441498 753.657104,287.449249 755.202637,285.789459 
	C755.719299,285.234558 754.769348,282.688049 753.868713,281.538452 
	C746.635681,272.305847 732.799866,272.868378 726.164246,282.816132 
	C720.672607,291.048889 720.880432,300.049133 722.561768,309.560730 
	C725.090271,323.864349 739.636292,330.213196 752.895630,322.434998 
	C754.319397,321.599792 755.732971,319.522308 755.855530,317.921844 
	C756.236084,312.951416 756.277222,307.906342 755.810791,302.950409 
	C755.677185,301.531494 753.535034,299.474091 752.030701,299.185394 
	C748.978027,298.599640 745.590942,298.479889 742.624390,299.252869 
	C741.107239,299.648193 739.570801,302.278748 739.258362,304.106750 
	C739.075928,305.174042 741.347595,307.797668 742.417664,307.744904 
	C746.984985,307.519531 747.052002,310.083649 747.055847,313.422699 
	C747.060547,317.506592 744.507874,317.762573 741.448303,318.045685 
	C737.024719,318.455017 734.385925,315.989288 732.868164,312.514984 
	C729.396484,304.568115 729.281677,296.354797 732.884094,288.437897 
	C735.834961,281.952911 741.507568,281.119415 746.557190,286.045990 
	C747.499146,286.964996 748.237244,288.092896 749.412170,289.694366 
M622.489502,240.001205 
	C625.816711,239.999924 629.149658,239.875229 632.469482,240.030884 
	C636.031433,240.197876 637.003662,238.461090 637.084167,235.178848 
	C637.166382,231.824051 635.836182,230.826080 632.666016,230.950623 
	C627.849060,231.139832 623.012146,230.839249 618.197144,231.051361 
	C614.847900,231.198898 613.666992,229.835388 613.988892,226.660873 
	C614.122559,225.343521 614.095703,223.995041 613.995911,222.671722 
	C613.736084,219.227859 615.293335,217.836334 618.707825,217.977005 
	C622.361267,218.127502 626.029480,217.904144 629.684998,218.027786 
	C632.879761,218.135834 633.028198,216.183731 633.035706,213.804031 
	C633.042969,211.500046 632.597229,209.912125 629.787598,209.985550 
	C625.964111,210.085449 622.121399,209.793396 618.313660,210.056381 
	C614.555054,210.315948 613.856018,208.508270 613.945984,205.278336 
	C614.031067,202.220856 613.874695,199.665359 618.252808,199.931366 
	C623.224854,200.233444 628.230164,199.961731 633.220642,199.996490 
	C636.843994,200.021729 636.978943,197.628830 637.042847,194.923080 
	C637.104980,192.294830 636.377075,190.922516 633.405884,190.971832 
	C625.423340,191.104324 617.436584,191.075302 609.452820,190.988235 
	C606.841980,190.959763 605.957947,192.062805 605.968689,194.573425 
	C606.028503,208.547287 606.030396,222.521698 605.969238,236.495560 
	C605.958008,239.060638 606.964539,240.089539 609.518860,240.022156 
	C613.508667,239.916901 617.503296,239.998672 622.489502,240.001205 
M1096.393433,282.995361 
	C1099.547729,284.165741 1102.702026,285.336151 1105.974365,286.550323 
	C1110.451904,281.934967 1110.502319,281.101624 1106.304077,277.902832 
	C1100.726196,273.652832 1090.723877,273.370239 1085.300415,277.468903 
	C1080.343384,281.215088 1077.547974,291.070892 1083.796143,296.192566 
	C1087.340942,299.098297 1091.210083,301.763519 1095.294434,303.819244 
	C1101.082642,306.732544 1103.549194,310.331482 1101.826416,314.906738 
	C1100.680420,317.949860 1095.569702,319.097137 1090.193481,317.137238 
	C1087.344727,316.098694 1084.729126,314.420563 1081.852051,312.951416 
	C1080.507202,315.168518 1079.324585,317.118317 1077.803589,319.626007 
	C1080.167480,321.156677 1082.266724,322.688812 1084.520630,323.942932 
	C1091.257690,327.691620 1102.562500,326.398926 1107.944946,321.369415 
	C1115.261963,314.532257 1112.457642,303.103882 1102.312744,298.130829 
	C1098.909424,296.462524 1095.284180,294.966492 1092.412231,292.600433 
	C1090.690063,291.181732 1089.265015,288.095642 1089.558960,286.021484 
	C1089.738403,284.756317 1093.436157,283.989868 1096.393433,282.995361 
M733.931763,226.293365 
	C731.128052,218.153687 730.585693,210.008087 734.505676,202.091248 
	C737.317566,196.412354 744.916138,195.153198 748.478149,200.237625 
	C751.883728,205.098984 754.323608,203.289307 757.615906,200.700974 
	C754.857544,194.117752 750.368103,190.367065 743.255981,189.980667 
	C735.664062,189.568161 730.081360,192.713516 726.398804,199.262695 
	C721.275879,208.373474 721.219238,217.947723 724.390137,227.597763 
	C728.607178,240.431412 742.446716,244.786880 753.312195,236.773575 
	C755.469666,235.182465 758.398560,233.117157 755.718262,230.047180 
	C753.395203,227.386276 750.669922,226.252808 747.452698,229.878113 
	C743.266785,234.594894 740.598267,234.323593 736.271423,229.782394 
	C735.477112,228.948639 734.847229,227.958099 733.931763,226.293365 
M519.361206,198.801102 
	C519.475037,195.910400 522.454224,191.460464 516.884705,191.166641 
	C507.102203,190.650558 497.268250,190.902817 487.467560,191.208908 
	C486.279968,191.245987 484.088928,193.771286 484.256653,194.848480 
	C484.541687,196.678543 486.000519,198.809982 487.595856,199.801682 
	C488.919952,200.624771 491.172882,200.178085 492.974670,199.962341 
	C496.921356,199.489777 498.171204,201.043564 498.073669,205.006378 
	C497.824097,215.143509 498.086975,225.292252 497.946625,235.433594 
	C497.891693,239.400818 500.013062,240.782959 503.198395,239.723297 
	C504.524078,239.282257 505.852417,236.586792 505.886505,234.890472 
	C506.119507,223.293839 506.008698,211.690277 506.008698,200.243927 
	C510.573975,199.947418 514.653381,199.682465 519.361206,198.801102 
z"/>
<path fill="#EBD77D" opacity="1.000000" stroke="none" 
	d="
M215.232925,124.834358 
	C215.144577,104.707939 214.997742,84.581535 214.988846,64.455086 
	C214.983109,51.491268 215.179932,38.527363 215.618622,25.733711 
	C215.962402,57.038509 216.074615,88.173737 215.876846,119.306992 
	C215.846817,124.036346 217.354385,125.119774 221.832306,125.094482 
	C252.799515,124.919525 283.768188,125.004257 314.847290,124.996254 
	C314.958160,124.986938 315.180695,124.987244 315.095276,125.449936 
	C315.030090,158.569763 315.050323,191.226898 315.031525,224.177399 
	C314.997528,224.667969 315.002594,224.865204 314.990051,225.035919 
	C314.972443,225.009399 315.024536,224.972809 314.554138,224.954773 
	C281.338379,224.917542 248.593002,224.898361 215.728729,224.873184 
	C215.609863,224.867188 215.372147,224.879501 215.385376,224.417435 
	C215.343384,190.915024 215.288147,157.874695 215.232925,124.834358 
z"/>
<path fill="#133A4B" opacity="1.000000" stroke="none" 
	d="
M414.803497,225.243011 
	C414.664337,243.938705 414.432129,262.634338 414.418060,281.330109 
	C414.408417,294.173431 414.575439,307.020477 414.935974,319.858246 
	C415.044983,323.739288 414.013489,325.032318 409.939453,325.010773 
	C378.658295,324.845428 347.375854,324.917023 315.612488,324.438599 
	C315.095612,290.965698 315.060089,257.969269 315.024536,224.972809 
	C315.024536,224.972809 314.972443,225.009399 315.455566,224.977478 
	C345.572266,224.928223 375.205841,224.899704 404.839386,224.909164 
	C408.160797,224.910217 411.482117,225.126526 414.803497,225.243011 
z"/>
<path fill="#E4CB4B" opacity="1.000000" stroke="none" 
	d="
M314.736389,125.005569 
	C283.768188,125.004257 252.799515,124.919525 221.832306,125.094482 
	C217.354385,125.119774 215.846817,124.036346 215.876846,119.306992 
	C216.074615,88.173737 215.962402,57.038509 215.917023,25.435194 
	C217.288757,24.652292 218.697754,24.052359 220.100204,24.067364 
	C237.544540,24.254007 254.987274,24.649807 272.431763,24.742418 
	C284.784698,24.807999 297.139404,24.449648 309.493835,24.402058 
	C311.217316,24.395418 312.943542,25.085138 314.978851,25.518608 
	C314.978851,29.666374 314.978851,33.646309 314.978851,37.626244 
	C314.978851,63.457207 314.953766,89.288231 315.017242,115.119041 
	C315.023682,117.737923 315.563995,120.355492 315.621399,123.532928 
	C315.169617,124.396645 314.953003,124.701103 314.736389,125.005569 
z"/>
<path fill="#AFBDC3" opacity="1.000000" stroke="none" 
	d="
M314.554138,224.954773 
	C315.060089,257.969269 315.095612,290.965698 315.155365,324.423279 
	C286.439484,324.946625 257.699371,325.008118 228.959290,325.072052 
	C224.972015,325.080933 220.984787,325.101929 216.527740,324.867798 
	C216.047623,324.434174 216.037292,324.250153 215.899506,323.600433 
	C215.797211,290.382904 215.822418,257.631042 215.847626,224.879181 
	C248.593002,224.898361 281.338379,224.917542 314.554138,224.954773 
z"/>
<path fill="#133A4B" opacity="1.000000" stroke="none" 
	d="
M215.728745,224.873184 
	C215.822418,257.631042 215.797211,290.382904 215.737427,323.766418 
	C215.451263,324.580017 215.220322,324.785156 215.010040,325.013519 
	C184.445450,324.982056 153.880875,324.954224 123.316299,324.910645 
	C121.328537,324.907806 119.340965,324.783813 117.090866,323.946167 
	C116.842163,319.189453 116.860123,315.202728 116.868927,311.216034 
	C116.932388,282.481232 116.993980,253.746429 117.521301,225.007629 
	C150.448334,224.962265 182.910233,224.920883 215.372147,224.879501 
	C215.372147,224.879501 215.609863,224.867188 215.728745,224.873184 
z"/>
<path fill="#2A5460" opacity="1.000000" stroke="none" 
	d="
M215.385376,224.417435 
	C182.910233,224.920883 150.448334,224.962265 117.386703,224.792908 
	C116.520515,224.387878 116.254059,224.193604 115.987602,223.999329 
	C115.987602,191.237442 115.987602,158.475540 115.987602,124.806686 
	C148.887833,124.806686 181.568069,124.806686 214.740631,124.820526 
	C215.288147,157.874695 215.343384,190.915024 215.385376,224.417435 
z"/>
<path fill="#BFE6EE" opacity="1.000000" stroke="none" 
	d="
M115.609901,324.068512 
	C115.609901,324.068512 115.402931,324.057129 114.811783,324.040710 
	C81.807373,324.018311 49.394119,324.012299 16.980860,324.006287 
	C16.984400,291.314697 16.987940,258.623108 17.463993,225.444061 
	C48.713062,224.950897 79.490372,225.049637 110.265396,224.829590 
	C115.006226,224.795715 116.058365,226.323105 116.008858,230.768860 
	C115.790268,250.396912 115.950005,270.028870 115.901756,289.659241 
	C115.873573,301.129181 115.711662,312.598755 115.609901,324.068512 
z"/>
<path fill="#FEFCFC" opacity="1.000000" stroke="none" 
	d="
M609.022522,141.993103 
	C598.354126,141.996002 587.685791,141.998901 576.521118,141.538239 
	C576.001160,102.739563 575.977478,64.404449 575.953796,26.069336 
	C577.678040,25.712646 579.400879,25.053942 581.126709,25.046061 
	C598.108459,24.968525 615.101746,24.622370 632.069031,25.122944 
	C644.758057,25.497297 657.415955,27.732883 664.243347,40.202808 
	C667.248047,45.690807 668.774597,52.339619 669.527832,58.634228 
	C671.004028,70.970627 670.551514,83.258904 662.958679,94.045349 
	C662.198853,95.124878 661.442078,96.442856 660.350952,97.012680 
	C655.272156,99.665062 656.251709,102.846886 658.440430,107.152206 
	C663.633972,117.368286 668.269226,127.868629 673.094788,138.270493 
	C673.486816,139.115585 673.608948,140.085892 674.047791,141.702789 
	C671.517517,141.816010 669.448181,141.980423 667.378174,141.988495 
	C659.386719,142.019699 651.392395,141.879684 643.404907,142.059311 
	C640.111328,142.133408 638.368835,141.033249 637.020508,137.900970 
	C633.347534,129.368195 629.026917,121.113197 625.388184,112.567093 
	C623.568848,108.294350 621.139099,106.182060 616.402222,106.953751 
	C614.617798,107.244446 612.746948,107.004189 610.157104,107.303719 
	C609.273315,119.065346 609.147888,130.529221 609.022522,141.993103 
M610.005127,78.245316 
	C610.928467,79.488907 611.790527,81.746590 612.785400,81.806717 
	C618.088562,82.127213 623.450317,82.202187 628.741394,81.759171 
	C632.728516,81.425331 635.429565,79.426857 635.080872,74.556793 
	C634.713318,69.422447 634.817322,64.232773 635.061523,59.083694 
	C635.226868,55.597996 633.768494,53.391312 630.551270,53.075024 
	C624.466797,52.476871 618.332825,52.253723 612.219238,52.250881 
	C611.481689,52.250538 610.141357,54.559891 610.104614,55.828419 
	C609.897400,62.980782 610.003296,70.142212 610.005127,78.245316 
z"/>
<path fill="#FEFCFC" opacity="1.000000" stroke="none" 
	d="
M691.997986,25.000528 
	C701.329956,25.000233 710.667236,25.183369 719.991394,24.913860 
	C724.000305,24.797987 725.087036,26.132452 725.065552,30.039948 
	C724.918457,56.867023 724.985779,83.695290 724.992065,110.523178 
	C724.993530,116.907341 725.062378,117.100777 731.374268,116.950874 
	C737.838562,116.797363 744.303894,116.442810 750.752686,115.960701 
	C755.501587,115.605675 757.994507,112.419449 758.005615,106.924522 
	C758.041870,88.927864 758.016235,70.931076 758.015503,52.934338 
	C758.015137,45.102421 758.116638,37.268639 757.969177,29.439522 
	C757.911438,26.373522 758.627441,24.860931 762.099182,24.939274 
	C770.593689,25.130953 779.096008,25.067249 787.593689,24.971846 
	C790.808655,24.935749 792.035950,26.289705 792.028503,29.462954 
	C791.969849,54.625778 792.240295,79.792870 791.824158,104.948975 
	C791.716248,111.469551 789.888916,118.047012 788.225708,124.435425 
	C786.035767,132.846680 779.943726,138.101212 772.020691,140.761581 
	C757.771606,145.546127 743.039246,146.109756 728.223450,144.193329 
	C722.821472,143.494568 717.403687,142.534241 712.159424,141.089645 
	C704.321838,138.930740 698.485718,133.862549 695.799133,126.222855 
	C693.842163,120.657837 693.205505,114.628502 691.983521,107.908386 
	C691.990540,79.673920 691.994263,52.337227 691.997986,25.000528 
z"/>
<path fill="#FEFCFC" opacity="1.000000" stroke="none" 
	d="
M918.511780,142.006866 
	C913.796387,142.137604 915.737305,139.167740 916.136902,137.555161 
	C919.491089,124.020004 922.962646,110.513031 926.509644,97.026703 
	C932.292969,75.037308 938.273193,53.098843 943.896179,31.068895 
	C945.023071,26.653887 946.682617,24.754536 951.560486,24.879610 
	C965.047791,25.225435 978.551880,25.130219 992.044556,24.913538 
	C995.722107,24.854481 997.482422,26.071634 998.377014,29.577301 
	C1001.987000,43.724255 1005.782959,57.823635 1009.479370,71.948662 
	C1015.108826,93.460472 1020.716797,114.977913 1026.318604,136.496933 
	C1026.732300,138.086182 1027.023193,139.707382 1027.512207,141.964554 
	C1016.860657,141.964554 1006.598816,142.023468 996.340820,141.852402 
	C995.522522,141.838745 994.323547,140.366272 993.997070,139.348602 
	C992.578491,134.926468 991.189575,130.468994 990.247375,125.929398 
	C989.666016,123.128113 988.541992,121.930771 985.642273,121.961235 
	C975.979980,122.062759 966.312439,121.875969 956.656677,122.148621 
	C955.324890,122.186234 953.396484,123.944626 952.870361,125.333092 
	C951.346924,129.353256 950.065735,133.532974 949.327087,137.761444 
	C948.731201,141.173019 947.129456,142.108749 943.941040,142.055679 
	C935.612366,141.917023 927.279907,142.009094 918.511780,142.006866 
M974.211975,64.257088 
	C973.517883,61.736103 972.823853,59.215122 972.129822,56.694141 
	C967.606323,69.063583 964.272339,81.334969 961.237366,93.679886 
	C961.037659,94.492157 963.049561,96.734032 964.156311,96.826050 
	C968.618591,97.197014 973.140686,96.787903 977.618835,97.046196 
	C981.727600,97.283195 982.671387,95.324226 981.767761,91.894394 
	C979.402588,82.917351 976.930908,73.968391 974.211975,64.257088 
z"/>
<path fill="#FEFCFC" opacity="1.000000" stroke="none" 
	d="
M891.208496,52.834293 
	C879.750671,51.842216 868.723755,50.500729 857.664917,50.142643 
	C850.655945,49.915695 846.169312,54.774879 846.085022,61.849285 
	C845.880554,79.000938 846.055481,96.156830 845.975586,113.310539 
	C845.962219,116.175064 847.131470,117.081085 849.855164,117.032417 
	C856.348328,116.916389 862.846680,116.905899 869.339417,117.033363 
	C872.235718,117.090233 873.118958,115.826378 873.030457,113.127151 
	C872.899475,109.134392 872.825623,105.124496 873.049500,101.139984 
	C873.242065,97.711815 871.700134,96.690720 868.593872,96.989807 
	C867.273987,97.116898 865.927490,96.941177 864.599731,97.018150 
	C862.121277,97.161827 860.928101,96.216263 860.976685,93.569946 
	C861.080505,87.909378 861.070557,82.244507 860.976746,76.583549 
	C860.935181,74.075836 861.828430,72.969795 864.450439,72.986183 
	C876.274231,73.060112 888.098816,73.053673 899.922729,72.996780 
	C902.954651,72.982185 904.023865,74.416199 904.017334,77.292961 
	C903.975220,95.945854 904.078918,114.599861 903.857483,133.250214 
	C903.838074,134.885712 902.121826,137.539642 900.688721,137.947922 
	C892.590271,140.255157 884.415894,142.522903 876.113464,143.817230 
	C869.107910,144.909393 861.836548,145.369705 854.785706,144.811188 
	C846.933411,144.189194 838.971924,142.818848 831.467285,140.467682 
	C821.843933,137.452774 816.359863,129.822662 814.083252,120.190819 
	C810.087769,103.286247 808.578491,86.170189 810.963379,68.860580 
	C811.865112,62.315567 812.564148,55.703148 814.069214,49.288914 
	C817.271973,35.639477 826.151123,28.236481 839.820435,24.783272 
	C857.615295,20.287849 875.036926,22.865725 892.593384,25.154800 
	C897.710327,25.821957 898.562378,27.558088 897.639404,32.723351 
	C896.621643,38.419228 896.017700,44.193077 894.860168,49.856651 
	C894.617798,51.042290 892.746521,51.895008 891.208496,52.834293 
z"/>
<path fill="#FEFCFC" opacity="1.000000" stroke="none" 
	d="
M485.952942,48.070732 
	C491.335876,47.716206 496.715179,47.144257 502.102539,47.054375 
	C511.996735,46.889301 511.998718,47.007690 511.998901,37.404045 
	C511.999115,24.999319 511.999115,24.999193 524.582275,24.999357 
	C534.562927,24.999485 544.546997,25.152327 554.522461,24.925856 
	C558.554016,24.834328 559.427795,26.487223 558.828247,30.019184 
	C557.805481,36.044540 556.663574,42.070049 556.100220,48.144516 
	C555.814514,51.224888 554.748474,52.093857 551.845947,52.053608 
	C542.865112,51.929062 533.868347,52.299114 524.903992,51.895973 
	C519.903748,51.671101 518.537048,53.447685 518.919312,58.134354 
	C519.296753,62.761772 519.015259,67.442940 519.330566,72.860107 
	C530.068420,73.730568 540.498535,73.841454 550.928589,73.952339 
	C551.254272,81.657822 551.675110,89.362640 551.728821,97.070015 
	C551.733215,97.701668 549.249023,98.875984 547.901550,98.905663 
	C539.758911,99.084946 531.606506,99.158066 523.466125,98.939499 
	C519.904114,98.843872 518.890015,100.124229 518.939453,103.547050 
	C519.102783,114.850266 518.894043,126.158913 519.063171,137.461945 
	C519.114746,140.908218 518.054810,142.163498 514.522766,142.066681 
	C506.714478,141.852676 498.892273,141.851913 491.083771,142.061737 
	C487.087097,142.169113 485.918640,140.529297 485.943024,136.734756 
	C486.064941,117.782669 485.996155,98.829338 485.990112,78.943069 
	C485.974823,68.030037 485.963898,58.050385 485.952942,48.070732 
z"/>
<path fill="#FEFCFC" opacity="1.000000" stroke="none" 
	d="
M1042.999023,25.000713 
	C1052.309692,25.000290 1061.628906,25.237606 1070.927612,24.903217 
	C1075.877686,24.725208 1077.119751,26.601976 1077.086548,31.274469 
	C1076.904907,56.877544 1077.127686,82.483780 1076.888794,108.085915 
	C1076.842896,113.006317 1078.413208,114.211716 1083.099487,114.110886 
	C1092.873901,113.900566 1102.662109,114.319283 1112.729736,115.235558 
	C1113.024902,124.304985 1113.035034,132.618408 1113.045166,140.931824 
	C1111.156250,141.291122 1109.268311,141.956421 1107.378174,141.962830 
	C1086.258301,142.034454 1065.137939,142.004425 1043.521240,141.538239 
	C1043.016235,102.383362 1043.007690,63.692039 1042.999023,25.000713 
z"/>
<path fill="#F6F5F7" opacity="1.000000" stroke="none" 
	d="
M1100.875122,189.637344 
	C1109.144531,193.516296 1112.572388,200.245743 1112.896118,208.450500 
	C1113.147095,214.807800 1113.051514,221.337097 1111.861206,227.550735 
	C1110.529175,234.504318 1105.880493,239.474487 1098.607300,240.803955 
	C1091.786011,242.050797 1085.452393,240.324173 1081.429565,234.399124 
	C1076.180176,226.667465 1074.702393,217.758041 1076.480591,208.685318 
	C1077.409058,203.949097 1079.212891,199.107529 1081.763916,195.027969 
	C1086.136719,188.034836 1093.352539,188.289627 1100.875122,189.637344 
z"/>
<path fill="#FEFCFC" opacity="1.000000" stroke="none" 
	d="
M964.954590,191.013611 
	C969.719055,190.165207 971.493225,192.517532 973.000183,196.224548 
	C976.527283,204.901047 980.509888,213.392380 984.999817,221.759140 
	C984.999817,213.147507 985.109680,204.533798 984.948181,195.925201 
	C984.879211,192.251419 986.283813,191.002380 989.929565,190.916367 
	C993.946167,190.821594 994.051453,192.995331 994.033142,195.959839 
	C993.955261,208.603149 994.120789,221.249557 993.876770,233.888626 
	C993.837769,235.910767 992.509583,239.303818 991.180054,239.630188 
	C987.866699,240.443573 984.026123,241.063492 982.051086,236.277969 
	C978.190552,226.923767 973.887939,217.751801 969.747620,208.513687 
	C969.500305,207.961929 969.069885,207.492249 967.998413,205.916016 
	C967.998413,216.477005 967.926514,225.844681 968.036987,235.210190 
	C968.076050,238.523758 966.987366,240.150406 963.437256,240.052628 
	C960.834595,239.980927 959.955200,238.948792 959.966614,236.435699 
	C960.029907,222.461304 960.065369,208.485901 959.951233,194.512146 
	C959.922241,190.963104 962.004028,190.892105 964.954590,191.013611 
z"/>
<path fill="#FEFCFC" opacity="1.000000" stroke="none" 
	d="
M851.000244,199.049026 
	C851.000305,200.197556 851.000244,200.862869 851.000366,201.528198 
	C851.002014,210.204819 852.898315,211.801315 861.496216,209.824341 
	C862.532227,209.586136 863.784607,207.664047 863.879456,206.440475 
	C864.187073,202.472000 864.129578,198.460388 863.972656,194.474854 
	C863.812256,190.400818 866.617920,191.061508 869.049561,191.016251 
	C871.581787,190.969101 874.077881,190.618973 874.041382,194.586136 
	C873.914246,208.390411 873.964966,222.196655 874.013123,236.001938 
	C874.023865,239.075439 872.476135,239.996124 869.650818,240.033020 
	C866.630981,240.072449 864.886169,239.177597 864.970337,235.810394 
	C865.078369,231.488571 864.890808,227.158813 865.022034,222.838287 
	C865.121155,219.576187 864.089600,217.907867 860.485596,217.967911 
	C849.004761,218.159225 851.227722,217.028336 851.009338,227.028183 
	C850.947571,229.854492 850.907349,232.686829 851.020264,235.509888 
	C851.145386,238.640594 849.911255,240.055176 846.644287,240.037613 
	C843.609619,240.021286 842.015503,239.141449 841.957703,235.799637 
	C841.730957,222.696472 841.438965,209.592758 840.969299,196.496490 
	C840.831970,192.665756 841.567261,190.858047 846.045349,190.849487 
	C850.615051,190.840759 851.457214,192.825638 851.011230,196.571152 
	C850.933105,197.227188 851.000183,197.900497 851.000244,199.049026 
z"/>
<path fill="#FEFCFC" opacity="1.000000" stroke="none" 
	d="
M639.009521,298.092834 
	C638.355957,303.801147 638.201050,309.158661 636.920776,314.232178 
	C635.354614,320.438080 631.080139,324.620575 624.583130,325.835175 
	C617.601624,327.140320 611.932983,324.974609 607.666321,319.066681 
	C600.884583,309.676178 601.447083,288.044861 609.147400,279.496368 
	C612.743896,275.503662 617.572632,273.770630 623.036560,274.520935 
	C631.163208,275.636871 635.440430,281.127411 637.785339,288.301331 
	C638.741638,291.227051 638.633240,294.500763 639.009521,298.092834 
M621.389099,318.963806 
	C623.605957,316.767059 626.769226,314.958160 627.858765,312.299500 
	C630.886597,304.910614 630.700012,297.167114 628.311829,289.479553 
	C627.147949,285.733215 624.569580,282.698029 621.021790,283.360779 
	C618.423035,283.846222 615.353821,286.859680 614.276245,289.479370 
	C611.238342,296.864868 611.451538,304.771667 614.211426,312.191528 
	C615.208069,314.870880 618.419373,316.726471 621.389099,318.963806 
z"/>
<path fill="#FEFCFC" opacity="1.000000" stroke="none" 
	d="
M960.979919,277.006226 
	C967.074280,276.670410 973.166260,276.277435 979.263977,276.022339 
	C982.418823,275.890350 985.587097,276.093445 988.743408,275.980042 
	C992.062256,275.860779 993.022644,277.527222 993.051025,280.590149 
	C993.079956,283.714172 991.370728,284.071716 988.906433,284.031342 
	C984.083923,283.952301 979.253906,284.152832 974.436890,283.974030 
	C969.833130,283.803070 969.952209,286.766998 969.991089,289.936859 
	C970.028809,293.005188 969.621277,296.195923 974.309692,296.011810 
	C977.797302,295.874847 981.326416,295.718018 984.773132,296.118988 
	C986.257446,296.291656 988.847778,298.063385 988.734741,298.742096 
	C988.417480,300.646881 987.209167,303.663239 985.899353,303.918793 
	C980.921692,304.889862 975.765198,304.944153 970.361206,305.365723 
	C970.468445,305.187408 970.165405,305.459229 970.155273,305.741577 
	C969.663513,319.440125 969.719299,316.744812 980.582275,316.983917 
	C982.577393,317.027863 984.574280,316.988220 986.570374,316.990692 
	C993.603149,316.999390 993.683838,317.101654 991.759277,324.742279 
	C981.363159,325.025421 971.717163,325.036530 962.071167,325.047668 
	C961.786865,324.831573 961.502625,324.615509 961.101624,323.703613 
	C960.983215,307.673920 960.981567,292.340057 960.979919,277.006226 
z"/>
<path fill="#FEFCFC" opacity="1.000000" stroke="none" 
	d="
M749.240845,289.409393 
	C748.237244,288.092896 747.499146,286.964996 746.557190,286.045990 
	C741.507568,281.119415 735.834961,281.952911 732.884094,288.437897 
	C729.281677,296.354797 729.396484,304.568115 732.868164,312.514984 
	C734.385925,315.989288 737.024719,318.455017 741.448303,318.045685 
	C744.507874,317.762573 747.060547,317.506592 747.055847,313.422699 
	C747.052002,310.083649 746.984985,307.519531 742.417664,307.744904 
	C741.347595,307.797668 739.075928,305.174042 739.258362,304.106750 
	C739.570801,302.278748 741.107239,299.648193 742.624390,299.252869 
	C745.590942,298.479889 748.978027,298.599640 752.030701,299.185394 
	C753.535034,299.474091 755.677185,301.531494 755.810791,302.950409 
	C756.277222,307.906342 756.236084,312.951416 755.855530,317.921844 
	C755.732971,319.522308 754.319397,321.599792 752.895630,322.434998 
	C739.636292,330.213196 725.090271,323.864349 722.561768,309.560730 
	C720.880432,300.049133 720.672607,291.048889 726.164246,282.816132 
	C732.799866,272.868378 746.635681,272.305847 753.868713,281.538452 
	C754.769348,282.688049 755.719299,285.234558 755.202637,285.789459 
	C753.657104,287.449249 751.394714,288.441498 749.240845,289.409393 
z"/>
<path fill="#FEFCFC" opacity="1.000000" stroke="none" 
	d="
M621.992676,240.001221 
	C617.503296,239.998672 613.508667,239.916901 609.518860,240.022156 
	C606.964539,240.089539 605.958008,239.060638 605.969238,236.495560 
	C606.030396,222.521698 606.028503,208.547287 605.968689,194.573425 
	C605.957947,192.062805 606.841980,190.959763 609.452820,190.988235 
	C617.436584,191.075302 625.423340,191.104324 633.405884,190.971832 
	C636.377075,190.922516 637.104980,192.294830 637.042847,194.923080 
	C636.978943,197.628830 636.843994,200.021729 633.220642,199.996490 
	C628.230164,199.961731 623.224854,200.233444 618.252808,199.931366 
	C613.874695,199.665359 614.031067,202.220856 613.945984,205.278336 
	C613.856018,208.508270 614.555054,210.315948 618.313660,210.056381 
	C622.121399,209.793396 625.964111,210.085449 629.787598,209.985550 
	C632.597229,209.912125 633.042969,211.500046 633.035706,213.804031 
	C633.028198,216.183731 632.879761,218.135834 629.684998,218.027786 
	C626.029480,217.904144 622.361267,218.127502 618.707825,217.977005 
	C615.293335,217.836334 613.736084,219.227859 613.995911,222.671722 
	C614.095703,223.995041 614.122559,225.343521 613.988892,226.660873 
	C613.666992,229.835388 614.847900,231.198898 618.197144,231.051361 
	C623.012146,230.839249 627.849060,231.139832 632.666016,230.950623 
	C635.836182,230.826080 637.166382,231.824051 637.084167,235.178848 
	C637.003662,238.461090 636.031433,240.197876 632.469482,240.030884 
	C629.149658,239.875229 625.816711,239.999924 621.992676,240.001221 
z"/>
<path fill="#FEFCFC" opacity="1.000000" stroke="none" 
	d="
M1095.973633,282.997375 
	C1093.436157,283.989868 1089.738403,284.756317 1089.558960,286.021484 
	C1089.265015,288.095642 1090.690063,291.181732 1092.412231,292.600433 
	C1095.284180,294.966492 1098.909424,296.462524 1102.312744,298.130829 
	C1112.457642,303.103882 1115.261963,314.532257 1107.944946,321.369415 
	C1102.562500,326.398926 1091.257690,327.691620 1084.520630,323.942932 
	C1082.266724,322.688812 1080.167480,321.156677 1077.803589,319.626007 
	C1079.324585,317.118317 1080.507202,315.168518 1081.852051,312.951416 
	C1084.729126,314.420563 1087.344727,316.098694 1090.193481,317.137238 
	C1095.569702,319.097137 1100.680420,317.949860 1101.826416,314.906738 
	C1103.549194,310.331482 1101.082642,306.732544 1095.294434,303.819244 
	C1091.210083,301.763519 1087.340942,299.098297 1083.796143,296.192566 
	C1077.547974,291.070892 1080.343384,281.215088 1085.300415,277.468903 
	C1090.723877,273.370239 1100.726196,273.652832 1106.304077,277.902832 
	C1110.502319,281.101624 1110.451904,281.934967 1105.974365,286.550323 
	C1102.702026,285.336151 1099.547729,284.165741 1095.973633,282.997375 
z"/>
<path fill="#FEFDFD" opacity="1.000000" stroke="none" 
	d="
M852.041748,284.052979 
	C850.378540,284.020203 848.493896,284.461517 847.116089,283.817871 
	C845.807495,283.206543 844.145813,281.388184 844.239929,280.230835 
	C844.359253,278.764679 846.036255,276.282410 847.144104,276.225250 
	C854.278992,275.856903 861.450684,275.852875 868.587036,276.203491 
	C869.776855,276.261963 871.721069,278.626862 871.737915,279.946106 
	C871.754822,281.272980 869.673584,283.861664 868.732849,283.764160 
	C862.863831,283.155975 862.829407,286.564636 862.945068,290.792877 
	C863.145203,298.107880 863.126892,305.435333 862.945862,312.751312 
	C862.864990,316.021332 864.015198,317.349609 867.268799,317.018921 
	C869.982239,316.743073 872.136658,316.971771 872.042358,320.783478 
	C871.948120,324.595154 869.891541,325.076874 866.856079,325.027679 
	C861.034546,324.933380 855.210083,324.968872 849.387390,325.014099 
	C846.545471,325.036194 844.153198,325.002350 843.958984,321.029694 
	C843.759155,316.942474 846.047180,316.813995 848.972351,316.961151 
	C849.773621,317.001434 850.591492,316.711517 851.994995,316.004639 
	C852.725525,307.356995 852.942993,299.277954 852.950439,291.198730 
	C852.952698,288.817108 852.361145,286.434906 852.041748,284.052979 
z"/>
<path fill="#FEFCFC" opacity="1.000000" stroke="none" 
	d="
M734.036621,226.666641 
	C734.847229,227.958099 735.477112,228.948639 736.271423,229.782394 
	C740.598267,234.323593 743.266785,234.594894 747.452698,229.878113 
	C750.669922,226.252808 753.395203,227.386276 755.718262,230.047180 
	C758.398560,233.117157 755.469666,235.182465 753.312195,236.773575 
	C742.446716,244.786880 728.607178,240.431412 724.390137,227.597763 
	C721.219238,217.947723 721.275879,208.373474 726.398804,199.262695 
	C730.081360,192.713516 735.664062,189.568161 743.255981,189.980667 
	C750.368103,190.367065 754.857544,194.117752 757.615906,200.700974 
	C754.323608,203.289307 751.883728,205.098984 748.478149,200.237625 
	C744.916138,195.153198 737.317566,196.412354 734.505676,202.091248 
	C730.585693,210.008087 731.128052,218.153687 734.036621,226.666641 
z"/>
<path fill="#FEFDFD" opacity="1.000000" stroke="none" 
	d="
M488.006012,325.019379 
	C487.675934,323.916107 487.063873,322.814178 487.058594,321.709351 
	C486.991669,307.749451 487.018463,293.789093 487.006775,279.828857 
	C487.003052,275.373749 490.248840,276.182373 493.009644,275.971008 
	C496.078766,275.736053 497.059418,277.038086 497.026031,280.028534 
	C496.905426,290.829407 497.084747,301.634094 496.920288,312.433838 
	C496.868164,315.856262 497.902710,317.275452 501.456787,317.045013 
	C505.263245,316.798248 509.098114,316.984894 512.920593,316.991699 
	C519.565186,317.003540 519.864014,317.409668 517.690552,324.642639 
	C507.374115,325.011017 497.690063,325.015198 488.006012,325.019379 
z"/>
<path fill="#FEFCFC" opacity="1.000000" stroke="none" 
	d="
M519.046997,199.109314 
	C514.653381,199.682465 510.573975,199.947418 506.008698,200.243927 
	C506.008698,211.690277 506.119507,223.293839 505.886505,234.890472 
	C505.852417,236.586792 504.524078,239.282257 503.198395,239.723297 
	C500.013062,240.782959 497.891693,239.400818 497.946625,235.433594 
	C498.086975,225.292252 497.824097,215.143509 498.073669,205.006378 
	C498.171204,201.043564 496.921356,199.489777 492.974670,199.962341 
	C491.172882,200.178085 488.919952,200.624771 487.595856,199.801682 
	C486.000519,198.809982 484.541687,196.678543 484.256653,194.848480 
	C484.088928,193.771286 486.279968,191.245987 487.467560,191.208908 
	C497.268250,190.902817 507.102203,190.650558 516.884705,191.166641 
	C522.454224,191.460464 519.475037,195.910400 519.046997,199.109314 
z"/>
<path fill="#97B0BE" opacity="1.000000" stroke="none" 
	d="
M414.837830,224.759476 
	C411.482117,225.126526 408.160797,224.910217 404.839386,224.909164 
	C375.205841,224.899704 345.572266,224.928223 315.473175,225.003998 
	C315.002594,224.865204 314.997528,224.667969 315.493439,224.189987 
	C346.918457,223.914291 377.842896,223.852905 408.766235,224.005630 
	C412.791229,224.025513 414.202545,223.049301 414.177551,218.781113 
	C413.994720,187.525635 414.061066,156.268707 414.035675,125.007759 
	C414.022491,125.003273 414.044952,125.033997 414.044922,125.033997 
	C414.330627,126.621307 414.863525,128.208313 414.865509,129.795959 
	C414.904572,161.289246 414.882141,192.782593 414.837830,224.759476 
z"/>
<path fill="#9EB5C1" opacity="1.000000" stroke="none" 
	d="
M115.881104,324.124481 
	C115.711662,312.598755 115.873573,301.129181 115.901756,289.659241 
	C115.950005,270.028870 115.790268,250.396912 116.008858,230.768860 
	C116.058365,226.323105 115.006226,224.795715 110.265396,224.829590 
	C79.490372,225.049637 48.713062,224.950897 17.468149,224.975037 
	C18.906353,224.684631 20.812292,224.110916 22.719561,224.106461 
	C53.496967,224.034546 84.274544,224.035034 115.519836,224.009216 
	C116.254059,224.193604 116.520515,224.387878 116.921577,224.796890 
	C116.993980,253.746429 116.932388,282.481232 116.868927,311.216034 
	C116.860123,315.202728 116.842163,319.189453 116.765762,323.649353 
	C116.519493,324.141846 116.335899,324.161133 115.881104,324.124481 
z"/>
<path fill="#CBD6E1" opacity="1.000000" stroke="none" 
	d="
M1042.715942,25.306465 
	C1043.007690,63.692039 1043.016235,102.383362 1043.058350,141.544403 
	C1042.728027,140.630630 1042.048340,139.247635 1042.046143,137.863571 
	C1041.988403,101.422188 1041.997437,64.980705 1042.019287,28.539242 
	C1042.019897,27.563496 1042.288940,26.587894 1042.715942,25.306465 
z"/>
<path fill="#CBD6E1" opacity="1.000000" stroke="none" 
	d="
M575.676086,26.368771 
	C575.977478,64.404449 576.001160,102.739563 576.058350,141.544403 
	C575.727966,140.631454 575.048584,139.249283 575.046387,137.866028 
	C574.988953,101.611626 574.999023,65.357109 575.018738,29.102619 
	C575.019226,28.291079 575.266357,27.479671 575.676086,26.368771 
z"/>
<path fill="#A9C6D9" opacity="1.000000" stroke="none" 
	d="
M314.847290,124.996246 
	C314.953003,124.701103 315.169617,124.396645 315.626312,123.942245 
	C346.423492,123.861633 376.980682,123.923332 407.537720,124.018021 
	C409.509613,124.024139 411.480713,124.284706 413.748566,124.730453 
	C414.044952,125.033997 414.022491,125.003273 413.562439,125.004944 
	C380.461853,125.000153 347.821259,124.993698 315.180695,124.987244 
	C315.180695,124.987244 314.958160,124.986938 314.847290,124.996246 
z"/>
<path fill="#9EB5C1" opacity="1.000000" stroke="none" 
	d="
M16.923229,324.300293 
	C49.394119,324.012299 81.807373,324.018311 114.712517,324.010925 
	C113.805779,324.344391 112.407707,324.991302 111.008438,324.993896 
	C80.251869,325.050720 49.495167,325.038696 18.738501,325.016785 
	C18.114098,325.016327 17.489893,324.741272 16.923229,324.300293 
z"/>
<path fill="#CBD6E1" opacity="1.000000" stroke="none" 
	d="
M691.715088,25.306450 
	C691.994263,52.337227 691.990540,79.673920 691.971069,107.471497 
	C691.637085,106.697250 691.043823,105.462715 691.041260,104.226952 
	C690.988342,78.829491 690.998779,53.431889 691.021729,28.034336 
	C691.022461,27.226887 691.289368,26.419685 691.715088,25.306450 
z"/>
<path fill="#CBD6E1" opacity="1.000000" stroke="none" 
	d="
M960.701233,277.314026 
	C960.981567,292.340057 960.983215,307.673920 960.968567,323.468231 
	C960.656616,323.358673 960.100708,322.787384 960.103394,322.218811 
	C960.174561,307.352936 960.303528,292.487396 960.701233,277.314026 
z"/>
<path fill="#CBD6E1" opacity="1.000000" stroke="none" 
	d="
M609.300659,141.685059 
	C609.147888,130.529221 609.273315,119.065346 609.693115,107.307388 
	C609.851318,118.467873 609.715027,129.922440 609.300659,141.685059 
z"/>
<path fill="#CBD6E1" opacity="1.000000" stroke="none" 
	d="
M852.027283,284.516235 
	C852.361145,286.434906 852.952698,288.817108 852.950439,291.198730 
	C852.942993,299.277954 852.725525,307.356995 852.295898,315.740479 
	C852.006531,305.689758 852.009705,295.334625 852.027283,284.516235 
z"/>
<path fill="#CBD6E1" opacity="1.000000" stroke="none" 
	d="
M550.629333,73.674850 
	C540.498535,73.841454 530.068420,73.730568 519.346252,73.331123 
	C529.479431,73.160835 539.904785,73.279099 550.629333,73.674850 
z"/>
<path fill="#CBD6E1" opacity="1.000000" stroke="none" 
	d="
M485.675354,48.370026 
	C485.963898,58.050385 485.974823,68.030037 485.970032,78.470436 
	C485.636169,76.227150 485.055573,73.523605 485.050415,70.818977 
	C485.036377,63.436008 485.265137,56.052570 485.675354,48.370026 
z"/>
<path fill="#CBD6E1" opacity="1.000000" stroke="none" 
	d="
M488.313721,325.298187 
	C497.690063,325.015198 507.374115,325.011017 517.526001,325.013245 
	C514.950378,325.346436 511.908081,325.933502 508.863251,325.946869 
	C502.116669,325.976440 495.368805,325.717987 488.313721,325.298187 
z"/>
<path fill="#CBD6E1" opacity="1.000000" stroke="none" 
	d="
M962.370483,325.325134 
	C971.717163,325.036530 981.363159,325.025421 991.469849,325.030457 
	C988.898865,325.364410 985.868408,325.933990 982.835327,325.948669 
	C976.114197,325.981201 969.391724,325.735077 962.370483,325.325134 
z"/>
<path fill="#CBD6E1" opacity="1.000000" stroke="none" 
	d="
M1113.322998,140.632355 
	C1113.035034,132.618408 1113.024902,124.304985 1113.030884,115.531006 
	C1113.231689,123.491257 1113.416260,131.912064 1113.322998,140.632355 
z"/>
<path fill="#9EB5C1" opacity="1.000000" stroke="none" 
	d="
M215.266754,325.110413 
	C215.220322,324.785156 215.451263,324.580017 215.864914,324.232117 
	C216.037292,324.250153 216.047623,324.434174 216.064590,324.895782 
	C215.888626,325.184662 215.706039,325.195953 215.266754,325.110413 
z"/>
<path fill="#BFE6EE" opacity="1.000000" stroke="none" 
	d="
M315.095276,125.449936 
	C347.821259,124.993698 380.461853,125.000153 413.575623,125.009430 
	C414.061066,156.268707 413.994720,187.525635 414.177551,218.781113 
	C414.202545,223.049301 412.791229,224.025513 408.766235,224.005630 
	C377.842896,223.852905 346.918457,223.914291 315.532471,223.896637 
	C315.050323,191.226898 315.030090,158.569763 315.095276,125.449936 
z"/>
<path fill="#E6E8EC" opacity="1.000000" stroke="none" 
	d="
M610.003784,77.772934 
	C610.003296,70.142212 609.897400,62.980782 610.104614,55.828419 
	C610.141357,54.559891 611.481689,52.250538 612.219238,52.250881 
	C618.332825,52.253723 624.466797,52.476871 630.551270,53.075024 
	C633.768494,53.391312 635.226868,55.597996 635.061523,59.083694 
	C634.817322,64.232773 634.713318,69.422447 635.080872,74.556793 
	C635.429565,79.426857 632.728516,81.425331 628.741394,81.759171 
	C623.450317,82.202187 618.088562,82.127213 612.785400,81.806717 
	C611.790527,81.746590 610.928467,79.488907 610.003784,77.772934 
z"/>
<path fill="#E5E8EB" opacity="1.000000" stroke="none" 
	d="
M974.356812,64.632660 
	C976.930908,73.968391 979.402588,82.917351 981.767761,91.894394 
	C982.671387,95.324226 981.727600,97.283195 977.618835,97.046196 
	C973.140686,96.787903 968.618591,97.197014 964.156311,96.826050 
	C963.049561,96.734032 961.037659,94.492157 961.237366,93.679886 
	C964.272339,81.334969 967.606323,69.063583 972.129822,56.694141 
	C972.823853,59.215122 973.517883,61.736103 974.356812,64.632660 
z"/>
<path fill="#E5E7EB" opacity="1.000000" stroke="none" 
	d="
M621.004578,318.960876 
	C618.419373,316.726471 615.208069,314.870880 614.211426,312.191528 
	C611.451538,304.771667 611.238342,296.864868 614.276245,289.479370 
	C615.353821,286.859680 618.423035,283.846222 621.021790,283.360779 
	C624.569580,282.698029 627.147949,285.733215 628.311829,289.479553 
	C630.700012,297.167114 630.886597,304.910614 627.858765,312.299500 
	C626.769226,314.958160 623.605957,316.767059 621.004578,318.960876 
z"/>
</svg>